<mxfile host="Electron" modified="2023-12-21T12:41:49.728Z" agent="Mozilla/5.0 (Windows NT 10.0; Win64; x64) AppleWebKit/537.36 (KHTML, like Gecko) draw.io/22.0.2 Chrome/114.0.5735.289 Electron/25.8.4 Safari/537.36" etag="zkRZ60ePwNrJNh6UEYhJ" version="22.0.2" type="device" pages="2">
  <diagram name="Page-1" id="QL8f58_1EJXDP4WZihlZ">
    <mxGraphModel dx="2202" dy="1312" grid="1" gridSize="10" guides="1" tooltips="1" connect="1" arrows="1" fold="1" page="1" pageScale="1" pageWidth="1500" pageHeight="1500" math="1" shadow="0">
      <root>
        <mxCell id="0" />
        <mxCell id="1" parent="0" />
        <mxCell id="lMFQrYqga6bZZg7uKPw4-1" value="searching for patterns" style="text;html=1;strokeColor=none;fillColor=none;align=center;verticalAlign=middle;whiteSpace=wrap;rounded=0;" vertex="1" parent="1">
          <mxGeometry x="170" y="100" width="220" height="20" as="geometry" />
        </mxCell>
        <mxCell id="lMFQrYqga6bZZg7uKPw4-8" style="edgeStyle=orthogonalEdgeStyle;rounded=0;orthogonalLoop=1;jettySize=auto;html=1;exitX=0;exitY=0.5;exitDx=0;exitDy=0;entryX=1;entryY=0.5;entryDx=0;entryDy=0;" edge="1" parent="1" source="lMFQrYqga6bZZg7uKPw4-2" target="lMFQrYqga6bZZg7uKPw4-7">
          <mxGeometry relative="1" as="geometry" />
        </mxCell>
        <mxCell id="lMFQrYqga6bZZg7uKPw4-2" value="Kepler with plannetary motion" style="text;html=1;strokeColor=none;fillColor=none;align=center;verticalAlign=middle;whiteSpace=wrap;rounded=0;" vertex="1" parent="1">
          <mxGeometry x="150" y="180" width="100" height="50" as="geometry" />
        </mxCell>
        <mxCell id="lMFQrYqga6bZZg7uKPw4-6" style="edgeStyle=orthogonalEdgeStyle;rounded=0;orthogonalLoop=1;jettySize=auto;html=1;exitX=1;exitY=0.5;exitDx=0;exitDy=0;entryX=0;entryY=0.5;entryDx=0;entryDy=0;" edge="1" parent="1" source="lMFQrYqga6bZZg7uKPw4-3" target="lMFQrYqga6bZZg7uKPw4-5">
          <mxGeometry relative="1" as="geometry" />
        </mxCell>
        <mxCell id="lMFQrYqga6bZZg7uKPw4-3" value="regularities in atomic spectra" style="text;html=1;strokeColor=none;fillColor=none;align=center;verticalAlign=middle;whiteSpace=wrap;rounded=0;" vertex="1" parent="1">
          <mxGeometry x="330" y="180" width="90" height="50" as="geometry" />
        </mxCell>
        <mxCell id="lMFQrYqga6bZZg7uKPw4-5" value="quantum physics" style="text;html=1;strokeColor=none;fillColor=none;align=center;verticalAlign=middle;whiteSpace=wrap;rounded=0;" vertex="1" parent="1">
          <mxGeometry x="480" y="190" width="60" height="30" as="geometry" />
        </mxCell>
        <mxCell id="lMFQrYqga6bZZg7uKPw4-7" value="classical mechanics" style="text;html=1;strokeColor=none;fillColor=none;align=center;verticalAlign=middle;whiteSpace=wrap;rounded=0;" vertex="1" parent="1">
          <mxGeometry x="40" y="190" width="60" height="30" as="geometry" />
        </mxCell>
        <mxCell id="lMFQrYqga6bZZg7uKPw4-9" value="\(\mathbf{t}\)" style="text;html=1;strokeColor=none;fillColor=none;align=center;verticalAlign=middle;whiteSpace=wrap;rounded=0;" vertex="1" parent="1">
          <mxGeometry x="410" y="270" width="60" height="30" as="geometry" />
        </mxCell>
        <mxCell id="lMFQrYqga6bZZg7uKPw4-10" value="\(\begin{bmatrix}&lt;br&gt;t_{1} \\&lt;br&gt;t_{2} \\&lt;br&gt;\vdots \\&lt;br&gt;t_{N}&lt;br&gt;\end{bmatrix}\)" style="text;html=1;strokeColor=none;fillColor=none;align=center;verticalAlign=middle;whiteSpace=wrap;rounded=0;" vertex="1" parent="1">
          <mxGeometry x="410" y="290" width="60" height="110" as="geometry" />
        </mxCell>
        <mxCell id="lMFQrYqga6bZZg7uKPw4-11" value="target vector" style="text;html=1;strokeColor=none;fillColor=none;align=center;verticalAlign=middle;whiteSpace=wrap;rounded=0;" vertex="1" parent="1">
          <mxGeometry x="400" y="400" width="80" height="30" as="geometry" />
        </mxCell>
        <mxCell id="lMFQrYqga6bZZg7uKPw4-12" value="Training set" style="text;html=1;strokeColor=none;fillColor=none;align=center;verticalAlign=middle;whiteSpace=wrap;rounded=0;" vertex="1" parent="1">
          <mxGeometry x="220" y="390" width="80" height="30" as="geometry" />
        </mxCell>
        <mxCell id="lMFQrYqga6bZZg7uKPw4-13" value="\(\mathbf{X}\)" style="text;html=1;strokeColor=none;fillColor=none;align=center;verticalAlign=middle;whiteSpace=wrap;rounded=0;" vertex="1" parent="1">
          <mxGeometry x="230" y="270" width="60" height="30" as="geometry" />
        </mxCell>
        <mxCell id="lMFQrYqga6bZZg7uKPw4-14" value="\(\begin{bmatrix}&lt;br&gt;\mathbf{x}_{1} \\&lt;br&gt;\mathbf{x}_{2} \\&lt;br&gt;\vdots \\&lt;br&gt;\mathbf{x}_{N} \\&lt;br&gt;\end{bmatrix}\)" style="text;html=1;strokeColor=none;fillColor=none;align=center;verticalAlign=middle;whiteSpace=wrap;rounded=0;" vertex="1" parent="1">
          <mxGeometry x="200" y="307.5" width="120" height="75" as="geometry" />
        </mxCell>
        <mxCell id="lMFQrYqga6bZZg7uKPw4-16" style="rounded=0;orthogonalLoop=1;jettySize=auto;html=1;exitX=1;exitY=0.5;exitDx=0;exitDy=0;" edge="1" parent="1" source="lMFQrYqga6bZZg7uKPw4-15">
          <mxGeometry relative="1" as="geometry">
            <mxPoint x="251" y="318" as="targetPoint" />
          </mxGeometry>
        </mxCell>
        <mxCell id="lMFQrYqga6bZZg7uKPw4-17" style="rounded=0;orthogonalLoop=1;jettySize=auto;html=1;exitX=1;exitY=0.5;exitDx=0;exitDy=0;" edge="1" parent="1" source="lMFQrYqga6bZZg7uKPw4-15">
          <mxGeometry relative="1" as="geometry">
            <mxPoint x="249.4666666666667" y="377.5333333333333" as="targetPoint" />
          </mxGeometry>
        </mxCell>
        <mxCell id="lMFQrYqga6bZZg7uKPw4-18" style="edgeStyle=none;rounded=0;orthogonalLoop=1;jettySize=auto;html=1;exitX=1;exitY=0.5;exitDx=0;exitDy=0;" edge="1" parent="1" source="lMFQrYqga6bZZg7uKPw4-15">
          <mxGeometry relative="1" as="geometry">
            <mxPoint x="250.5333333333333" y="332.20000000000005" as="targetPoint" />
          </mxGeometry>
        </mxCell>
        <mxCell id="lMFQrYqga6bZZg7uKPw4-15" value="all elements are vector" style="text;html=1;strokeColor=none;fillColor=none;align=center;verticalAlign=middle;whiteSpace=wrap;rounded=0;" vertex="1" parent="1">
          <mxGeometry x="140" y="320" width="60" height="30" as="geometry" />
        </mxCell>
        <mxCell id="lMFQrYqga6bZZg7uKPw4-21" style="edgeStyle=none;rounded=0;orthogonalLoop=1;jettySize=auto;html=1;exitX=1;exitY=0.5;exitDx=0;exitDy=0;entryX=0;entryY=0.5;entryDx=0;entryDy=0;" edge="1" parent="1" source="lMFQrYqga6bZZg7uKPw4-19" target="lMFQrYqga6bZZg7uKPw4-20">
          <mxGeometry relative="1" as="geometry" />
        </mxCell>
        <mxCell id="lMFQrYqga6bZZg7uKPw4-22" value="output" style="edgeLabel;html=1;align=center;verticalAlign=middle;resizable=0;points=[];" vertex="1" connectable="0" parent="lMFQrYqga6bZZg7uKPw4-21">
          <mxGeometry x="-0.3267" y="1" relative="1" as="geometry">
            <mxPoint as="offset" />
          </mxGeometry>
        </mxCell>
        <mxCell id="lMFQrYqga6bZZg7uKPw4-19" value="\(\mathbf{y}(\mathbf{x})\)" style="text;html=1;strokeColor=none;fillColor=none;align=center;verticalAlign=middle;whiteSpace=wrap;rounded=0;" vertex="1" parent="1">
          <mxGeometry x="240" y="480" width="40" height="30" as="geometry" />
        </mxCell>
        <mxCell id="lMFQrYqga6bZZg7uKPw4-20" value="\(\mathbf{y}\)" style="text;html=1;strokeColor=none;fillColor=none;align=center;verticalAlign=middle;whiteSpace=wrap;rounded=0;" vertex="1" parent="1">
          <mxGeometry x="345" y="480" width="15" height="30" as="geometry" />
        </mxCell>
        <mxCell id="lMFQrYqga6bZZg7uKPw4-23" value="encoded as the target vector" style="text;html=1;strokeColor=none;fillColor=none;align=center;verticalAlign=middle;whiteSpace=wrap;rounded=0;" vertex="1" parent="1">
          <mxGeometry x="370" y="480" width="85" height="30" as="geometry" />
        </mxCell>
        <mxCell id="lMFQrYqga6bZZg7uKPw4-24" value="goal in pattern recognition is generalization" style="text;whiteSpace=wrap;align=center;" vertex="1" parent="1">
          <mxGeometry x="230" y="550" width="170" height="40" as="geometry" />
        </mxCell>
      </root>
    </mxGraphModel>
  </diagram>
  <diagram id="kTiohdBoyTkVROiaZnmS" name="Page-2">
    <mxGraphModel dx="1789" dy="1066" grid="1" gridSize="10" guides="1" tooltips="1" connect="1" arrows="1" fold="1" page="1" pageScale="1" pageWidth="1500" pageHeight="1500" math="1" shadow="0">
      <root>
        <mxCell id="0" />
        <mxCell id="1" parent="0" />
      </root>
    </mxGraphModel>
  </diagram>
</mxfile>
